<svg width="881" height="200" viewBox="0 0 881 200" fill="none" xmlns="http://www.w3.org/2000/svg">
<g clip-path="url(#clip0_412_57)">
<path d="M0 109.572H109.186V130.48H33.9123V141.065H72.8558C108.794 141.065 117.745 152.891 117.745 168.507V169.553C117.745 185.43 108.794 198.301 72.8558 198.301H0V109.507V109.572ZM69.1313 176.87C79.7167 176.87 82.5917 173.146 82.5917 168.965V168.638C82.5917 164.326 79.7167 161.124 69.1313 161.124H33.9123V176.87H69.1313Z" fill="black"/>
<path d="M214.123 142.633L158.387 198.367H124.475V109.572H158.387V165.436L214.123 109.572H248.035V198.367H214.123V142.633Z" fill="black"/>
<path d="M378.983 171.251C378.983 186.409 366.699 199.673 320.959 199.673H315.34C276.658 199.673 256.141 188.108 256.141 166.285V164.521H291.229C291.556 173.146 299.919 177.785 318.999 177.785C336.772 177.785 343.502 174.779 343.502 169.879V169.552C343.502 164.652 337.164 162.626 324.292 162.626H298.155V142.306H324.292C336.249 142.306 341.738 140.738 341.738 136.556V136.164C341.738 131.852 334.812 129.63 318.476 129.63C302.141 129.63 291.882 132.636 291.49 141.587H256.402V139.692C256.402 122.835 274.175 108.396 314.752 108.396H320.11C364.02 108.396 376.108 119.111 376.108 131.199V132.244C376.108 141.195 368.593 148.578 354.284 150.016C370.162 151.584 378.983 159.555 378.983 170.075V171.251Z" fill="black"/>
<path d="M386.498 109.572H420.41V140.935H475.885V109.572H509.667V198.367H475.885V164.587H420.41V198.367H386.498V109.572Z" fill="black"/>
<path d="M618.983 109.572V131.265H554.164V142.372H617.676V163.999H554.164V176.152H619.898V198.367H520.709V109.572H618.918H618.983Z" fill="black"/>
<path d="M688.637 200C634.077 200 625.844 172.166 625.844 155.374V151.911C625.844 134.988 633.227 107.873 688.637 107.873H693.276C747.248 107.873 755.089 132.31 755.089 143.809V145.377H719.87C719.151 142.96 716.407 131.787 690.663 131.787C664.918 131.787 660.932 142.633 660.932 152.564V154.002C660.932 163.541 666.878 176.086 690.793 176.086C716.93 176.086 719.544 163.541 720.001 161.516H755.089V163.41C755.089 174.975 746.726 200.065 693.276 200.065H688.637V200Z" fill="black"/>
<path d="M1.37217 94.0868H39.989C40.7731 94.0868 41.3612 93.4988 41.3612 92.7147V30.7742C41.3612 29.9901 41.9493 29.4021 42.7334 29.4021H81.2849C82.069 29.4021 82.657 28.8141 82.657 28.03V4.11624C82.657 3.33218 82.069 2.74414 81.2849 2.74414H1.37217C0.588074 2.74414 0 3.33218 0 4.11624V92.7147C0 93.4988 0.588074 94.0868 1.37217 94.0868Z" fill="black"/>
<path d="M233.336 94.0868H271.952C272.736 94.0868 273.325 93.4988 273.325 92.7147V30.7742C273.325 29.9901 273.913 29.4021 274.697 29.4021H313.248C314.032 29.4021 314.62 28.8141 314.62 28.03V4.11624C314.62 3.33218 314.032 2.74414 313.248 2.74414H233.336C232.551 2.74414 231.963 3.33218 231.963 4.11624V92.7147C231.963 93.4988 232.551 94.0868 233.336 94.0868Z" fill="black"/>
<path d="M91.6061 94.0868H131.007C131.399 94.0868 131.791 93.8908 132.052 93.6295L178.184 42.6004C179.033 41.6857 180.601 42.2737 180.601 43.5151V92.7147C180.601 93.4988 181.189 94.0868 181.973 94.0868H220.59C221.374 94.0868 221.962 93.4988 221.962 92.7147V4.11624C221.962 3.33218 221.374 2.74414 220.59 2.74414H181.189C180.797 2.74414 180.405 2.94016 180.144 3.20151L134.013 54.3613C133.163 55.276 131.595 54.688 131.595 53.4465V4.11624C131.595 3.33218 131.007 2.74414 130.223 2.74414H91.6061C90.822 2.74414 90.2339 3.33218 90.2339 4.11624V92.7147C90.2339 93.4988 90.822 94.0868 91.6061 94.0868Z" fill="black"/>
<path d="M389.569 81.4112H339.648C339.191 81.4112 338.799 81.6726 338.668 82.0646L333.31 93.4988C333.114 93.8908 332.722 94.1522 332.33 94.1522H290.707C289.923 94.1522 289.335 93.3681 289.727 92.6494L334.878 3.33218C335.074 2.94016 335.466 2.74414 335.858 2.74414H394.797C395.189 2.74414 395.581 2.94016 395.777 3.33218L443.933 92.5841C444.325 93.3028 443.803 94.0868 442.953 94.0868H397.083C396.626 94.0868 396.234 93.8255 396.103 93.4988L390.615 82.0646C390.419 81.6726 390.027 81.4766 389.635 81.4766L389.569 81.4112ZM377.285 54.7533L365.327 30.1861C364.935 29.4021 363.694 29.4021 363.302 30.1861L351.54 54.7533C351.214 55.472 351.736 56.2561 352.521 56.2561H376.24C377.024 56.2561 377.612 55.472 377.22 54.7533H377.285Z" fill="black"/>
<path d="M851.631 2.74414H726.306C725.522 2.74414 724.934 3.33218 724.934 4.11624V28.1607C724.934 28.9447 725.522 29.5328 726.306 29.5328H766.817C767.602 29.5328 768.19 30.1208 768.19 30.9049V92.7147C768.19 93.4988 768.778 94.0868 769.562 94.0868H808.309C809.093 94.0868 809.682 93.4988 809.682 92.7147V30.9702C809.682 30.1862 810.27 29.5981 811.054 29.5981H851.565C852.35 29.5981 852.938 29.0101 852.938 28.226V4.11624C852.938 3.33218 852.35 2.74414 851.565 2.74414H851.631Z" fill="#555555"/>
<path d="M554.782 4.3775V92.388C554.782 93.3027 553.998 94.0867 553.083 94.0867H515.447C514.532 94.0867 513.748 93.3027 513.748 92.388V65.4033C513.748 64.3579 512.898 63.5738 511.853 63.7045C503.75 64.6846 490.29 65.2726 479.77 65.2726C437.102 65.2726 423.38 53.5771 423.38 22.6722V4.3775C423.38 3.46277 424.164 2.67871 425.079 2.67871H463.108C464.023 2.67871 464.807 3.46277 464.807 4.3775V19.5359C464.807 34.041 471.145 37.1772 487.938 37.1772C493.165 37.1772 506.56 36.7852 512.179 36.1972C513.029 36.1318 513.682 35.3478 513.682 34.4984V4.3775C513.682 3.46277 514.466 2.67871 515.381 2.67871H553.018C553.933 2.67871 554.717 3.46277 554.717 4.3775H554.782Z" fill="#555555"/>
<path d="M611.498 95.9815H600.586C574.907 95.9815 557.199 82.6525 563.407 65.5993C569.614 48.4807 583.336 39.7907 616.464 37.6346L665.928 36.1318C670.894 35.6091 672.919 34.825 674.226 30.8394C675.664 26.0697 666.646 23.2602 653.317 23.2602H645.868C633.192 23.2602 622.933 28.1605 620.189 30.8394C619.535 31.4275 618.686 31.7541 617.836 31.7541L579.873 31.6235C578.958 31.6235 578.305 30.6434 578.697 29.794C584.512 17.4451 606.01 -0.130859 652.859 -0.130859H662.465C712.582 -0.130859 720.684 17.4451 715.457 31.7541L706.962 55.7332C704.349 63.1818 709.184 64.8152 712.647 64.8152H722.056C722.971 64.8152 723.624 65.73 723.298 66.5794L713.888 92.3879C713.562 93.3027 712.712 93.8907 711.732 93.8907H675.533C660.7 93.8907 656.519 87.4876 656.715 82.3912C652.467 85.8541 633.91 95.8509 611.368 95.8509L611.498 95.9815ZM664.882 56.5826L666.189 54.2958C666.712 53.3811 665.993 52.2703 664.948 52.401C659.002 53.0544 649.331 54.0998 638.876 55.0799C615.549 57.236 608.885 59.5229 605.814 64.7499C602.873 70.4997 607.643 72.9825 621.43 72.9825C645.607 72.9825 660.178 64.4885 664.882 56.5173V56.5826Z" fill="#555555"/>
</g>
<defs>
<clipPath id="clip0_412_57">
<rect width="881" height="200" fill="white"/>
</clipPath>
</defs>
</svg>
