<svg width="953" height="202" viewBox="0 0 953 202" fill="none" xmlns="http://www.w3.org/2000/svg">
<path d="M855.032 199.542H812.289V105.17H855.032V140.298L899.439 105.17H951.943L896.399 147.788L952.837 199.542H897.025L855.032 159.712V199.542Z" fill="black"/>
<path d="M712.214 129.661V143.48H750.149C757.246 143.48 759.785 140.566 759.785 136.633V136.508C759.785 132.575 757.246 129.661 750.149 129.661H712.214ZM712.214 168.346V199.559H669.471V105.188H765.487C789.21 105.188 803.797 111.909 803.797 129.16V130.43C803.797 144.642 791.123 149.969 783.257 151.989C796.575 154.653 804.173 162.894 804.173 175.068V189.28C804.173 194.858 804.942 197.146 805.961 198.791V199.559H762.073C761.429 198.934 761.179 197.665 761.179 195.752V184.471C761.179 174.317 756.352 168.364 742.533 168.364H712.214V168.346Z" fill="black"/>
<path d="M571.917 201.634L564.676 201.526C499.766 200.633 489.486 176.66 491.739 157.71C492.043 155.172 492.615 151.614 493.652 147.931C498.943 128.893 515.497 102.506 586.307 103.49L593.387 103.579C659.674 104.491 668.898 128.321 666.718 146.626C666.306 150.059 665.43 153.741 664.429 156.906C658.584 175.676 643.299 202.599 571.899 201.598L571.917 201.634ZM616.895 149.523C617.985 140.87 611.103 131.86 584.144 131.485C554.808 131.074 544.869 141.389 542.455 150.399C542.169 151.417 541.848 152.687 541.615 154.582C540.525 163.234 547.139 172.995 573.955 173.37C602.826 173.764 612.908 163.592 615.84 154.206C616.358 152.436 616.734 150.899 616.895 149.505V149.523Z" fill="black"/>
<path d="M381.421 199.542H325.735L290.982 105.17H339.571L357.967 164.021L374.574 105.17H424.683L441.291 164.146L458.792 105.17H504.074L468.946 199.542H414.529L397.921 143.855L381.439 199.542H381.421Z" fill="black"/>
<path d="M219.17 103.4H225.266C287.8 103.4 296.685 131.306 296.685 150.202V154.01C296.685 172.655 287.8 201.33 225.266 201.33H219.17C156.762 201.33 147.878 172.655 147.878 154.01V150.202C147.878 131.306 156.762 103.4 219.17 103.4ZM252.404 152.741V150.971C252.404 141.836 245.932 131.306 222.21 131.306C198.487 131.306 192.016 141.836 192.016 150.971V152.49C192.016 161.75 198.487 173.174 222.21 173.174C245.932 173.174 252.404 162.019 252.404 152.758V152.741Z" fill="black"/>
<path d="M75.0831 201.33H70.3993C8.7599 201.33 0.000244141 172.798 0.000244141 154.01V150.202C0.000244141 131.306 8.11633 103.4 70.3993 103.4H75.0831C135.203 103.4 143.444 129.536 143.444 142.586V144.356H99.6816C99.0381 141.943 96.5174 131.288 72.1513 131.288C47.7851 131.288 44.1203 141.693 44.1203 150.953V152.472C44.1203 161.482 49.1974 173.156 72.2764 173.156C97.018 173.156 99.2883 161.232 99.6816 159.194H143.444V161.858C143.444 174.801 135.203 201.312 75.0831 201.312V201.33Z" fill="black"/>
<path d="M552.288 91.3508L508.561 2.27034C508.382 1.9128 508.043 1.6983 507.667 1.6983H454.18C453.786 1.6983 453.429 1.9307 453.286 2.28824L417.085 80.8213C416.674 81.7151 415.315 81.447 415.315 80.428V44.9067C415.315 44.281 414.833 43.7804 414.243 43.7804H358.109C357.519 43.7804 357.019 44.2989 357.019 44.9067V58.8149C357.019 59.4406 357.502 59.9411 358.109 59.9411H370.266C371.392 59.9411 371.213 60.8707 370.963 61.1031C367.584 64.3388 361.256 67.3779 349.332 67.3779C327.808 67.3779 323.089 56.0976 323.089 47.4094V45.9435C323.089 37.0051 327.343 26.9404 349.225 26.9404C365.314 26.9404 371.195 32.2141 373.448 36.0576C373.609 36.3079 373.859 36.4688 374.145 36.4688H414.725C415.19 36.4688 415.566 36.0576 415.548 35.5749C414.511 22.4176 404.857 0 351.924 0H347.544C289.498 0 281.936 26.8332 281.936 45.2106V48.8932C281.936 67.0204 290.106 94.5865 347.544 94.5865H351.924C364.706 94.5865 375.235 91.3865 383.512 86.6849C384.192 86.2916 385.014 86.8101 385.014 87.6145V91.8334C385.014 92.4055 385.479 92.8882 386.015 92.8882H450.926C451.319 92.8882 451.677 92.6557 451.856 92.2625L456.718 80.8749C456.879 80.4816 457.237 80.2492 457.648 80.2492H502.966C503.359 80.2492 503.716 80.4816 503.859 80.8749L508.847 92.2803C509.008 92.6379 509.365 92.9061 509.741 92.9061H551.394C552.127 92.9061 552.627 92.0837 552.288 91.3865V91.3329V91.3508ZM490.881 55.1501H469.357C468.642 55.1501 468.141 54.3457 468.463 53.6842L479.118 29.1751C479.475 28.3527 480.584 28.3527 480.941 29.1751L491.81 53.6842C492.114 54.3814 491.632 55.168 490.917 55.168H490.881V55.1501Z" fill="black"/>
<path d="M69.7199 26.958C86.3811 26.958 92.4771 32.2317 94.8548 36.0752C95.0156 36.3255 95.2838 36.4864 95.5698 36.4864H137.652C138.135 36.4864 138.546 36.0752 138.51 35.5926C137.455 22.4352 127.444 0.0175781 72.5623 0.0175781H68.0395C7.83019 0.0175781 0.00012207 26.8507 0.00012207 45.2281V48.9108C0.00012207 67.0379 8.438 94.604 68.0395 94.604H72.5623C85.7912 94.604 96.7139 91.4041 105.313 86.7025C106.01 86.3092 106.85 86.8276 106.85 87.6321V91.851C106.85 92.4231 107.315 92.9058 107.905 92.9058H137.259C137.831 92.9058 138.313 92.441 138.313 91.851V44.9421C138.313 44.3164 137.795 43.8159 137.187 43.8159H78.998C78.3723 43.8159 77.8717 44.3343 77.8717 44.9421V58.8503C77.8717 59.476 78.3902 59.9766 78.998 59.9766H91.5833C92.7453 59.9766 92.5665 60.9061 92.2984 61.1385C88.7945 64.3743 82.2337 67.4133 69.8629 67.4133C47.5705 67.4133 42.6364 56.1331 42.6364 47.4449V45.979C42.6364 37.0406 47.0341 26.9759 69.7199 26.9759H69.6841L69.7199 26.958Z" fill="black"/>
<path d="M279.576 27.529V2.7696C279.576 2.19754 279.111 1.71484 278.521 1.71484H146.501C145.929 1.71484 145.446 2.17966 145.446 2.7696V27.529C145.446 28.1011 145.911 28.5838 146.501 28.5838H191.121C191.693 28.5838 192.176 29.0486 192.176 29.6385V65.0347C192.176 65.6068 191.711 66.0894 191.121 66.0894H146.501C145.929 66.0894 145.446 66.5542 145.446 67.1442V91.8857C145.446 92.4578 145.911 92.9405 146.501 92.9405H278.521C279.093 92.9405 279.576 92.4757 279.576 91.8857V67.1442C279.576 66.5721 279.111 66.0894 278.521 66.0894H234.419C233.847 66.0894 233.364 65.6246 233.364 65.0347V29.6385C233.364 29.0664 233.829 28.5838 234.419 28.5838H278.521C279.093 28.5838 279.576 28.119 279.576 27.529Z" fill="black"/>
</svg>
