<svg width="185" height="21" viewBox="0 0 185 21" fill="none" xmlns="http://www.w3.org/2000/svg">
<g clip-path="url(#clip0_3707_1137)">
<mask id="mask0_3707_1137" style="mask-type:luminance" maskUnits="userSpaceOnUse" x="0" y="0" width="185" height="21">
<path d="M185 0H0V21H185V0Z" fill="white"/>
</mask>
<g mask="url(#mask0_3707_1137)">
<path d="M16.9851 20.6986L11.229 14.916L5.4729 20.6986H16.9851Z" fill="black"/>
<path d="M0.0546875 0.177734H11.2288H22.403V20.6989L11.2288 10.7455L0.0546875 20.6989V0.177734Z" fill="black"/>
<path d="M0.0546875 0.177734H11.2288V10.7455L0.0546875 20.6989V0.177734Z" fill="black"/>
<path fill-rule="evenodd" clip-rule="evenodd" d="M32.3607 0.28125L24.3687 20.6982H29.2209L30.7432 16.2903H38.6476L40.1941 20.6982H45.4588L37.9741 0.28125H32.3607ZM37.3696 12.6477L34.6642 4.93682L32.0012 12.6477H37.3696ZM45.7571 0.28125V20.6982H55.5884C57.0263 20.6982 58.3372 20.4839 59.5211 20.0554C60.705 19.6064 61.6458 18.933 62.3437 18.0351C63.0624 17.1168 63.4219 15.9434 63.4219 14.515C63.4219 13.4742 63.168 12.5865 62.6606 11.8519C62.1745 11.0968 61.4871 10.5152 60.5993 10.1071C60.3286 9.97338 60.0439 9.85855 59.7446 9.76262C59.8176 9.72531 59.8911 9.68707 59.965 9.64792C60.6206 9.2806 61.1806 8.80104 61.6458 8.20925C62.1111 7.61745 62.3437 6.86239 62.3437 5.94411C62.3437 4.57683 62.0263 3.48508 61.3919 2.66884C60.758 1.83217 59.8697 1.23016 58.728 0.862842C57.6076 0.475115 56.2754 0.28125 54.7319 0.28125H45.7571ZM55.208 16.8719H50.8945V11.9437H55.1128C55.5145 11.9437 55.895 11.9845 56.2545 12.0661C56.6137 12.1478 56.9311 12.2804 57.2058 12.4641C57.5019 12.6273 57.7345 12.862 57.9037 13.1681C58.0728 13.4742 58.1571 13.8619 58.1571 14.3313C58.1571 14.9639 58.0197 15.474 57.745 15.8618C57.4702 16.2291 57.1106 16.4944 56.6667 16.6576C56.2228 16.8005 55.7363 16.8719 55.208 16.8719ZM55.0176 8.30106H50.8945V4.1381H54.7006C55.3771 4.1381 55.948 4.30135 56.4128 4.62785C56.878 4.93396 57.1106 5.50534 57.1106 6.34203C57.1106 6.81141 57.005 7.18891 56.7937 7.4746C56.6032 7.76029 56.3498 7.97458 56.0324 8.11743C55.7154 8.23985 55.3771 8.30106 55.0176 8.30106Z" fill="black"/>
<path fill-rule="evenodd" clip-rule="evenodd" d="M67.3147 18.3107C68.9639 20.0657 71.4165 20.9432 74.6721 20.9432C75.4121 20.9432 76.1417 20.882 76.8604 20.7595C77.6004 20.6575 78.3195 20.4942 79.0173 20.2697C79.736 20.0453 80.4339 19.78 81.1104 19.4739V17.3618C80.1378 17.8719 79.1334 18.2495 78.0973 18.4944C77.0612 18.7392 76.0043 18.8617 74.926 18.8617C73.1499 18.8617 71.6913 18.5658 70.5495 17.974C69.4291 17.3822 68.5939 16.4741 68.0439 15.2497C67.5156 14.0049 67.2513 12.4132 67.2513 10.4745C67.2513 8.53584 67.5156 6.95432 68.0439 5.72993C68.5939 4.48512 69.4291 3.56681 70.5495 2.97501C71.6913 2.38325 73.1499 2.08735 74.926 2.08735C76.0043 2.08735 77.0612 2.22 78.0973 2.48528C79.1334 2.73017 80.1378 3.10766 81.1104 3.61782V1.50576C80.0956 1.0364 79.0491 0.669078 77.9704 0.403792C76.8921 0.138504 75.793 0.00585938 74.6721 0.00585938C71.4165 0.00585938 68.9639 0.88335 67.3147 2.63833C65.6865 4.39328 64.8726 7.00534 64.8726 10.4745C64.8726 13.9437 65.6865 16.5557 67.3147 18.3107ZM81.9053 0.281352V20.6983H95.257V18.6168H84.1887V11.5459H93.9253V9.40314H84.1887V2.36284H95.257V0.281352H81.9053ZM96.6858 0.281352V20.6983H98.9692V3.48074L111.624 20.6983H114.192V2.36284H121.349V20.6983H123.633V2.36284H130.769V20.6983H133.053V12.4642H138.442L143.962 20.6983H146.658L140.91 12.2333C141.61 12.1098 142.247 11.8806 142.82 11.5459C143.73 11.0153 144.438 10.2909 144.945 9.37253C145.453 8.45425 145.706 7.40327 145.706 6.21967C145.706 4.26064 145.178 2.78118 144.121 1.78125C143.084 0.781317 141.531 0.281352 139.458 0.281352H131.086H130.769H114.192H113.865H111.909V17.472L99.2866 0.281352H96.6858ZM138.412 10.3827H133.053V2.36284H139.205C140.832 2.36284 141.942 2.73017 142.535 3.46477C143.128 4.17901 143.422 5.14832 143.422 6.37275C143.422 7.67877 143.022 8.67868 142.218 9.37253C141.436 10.046 140.168 10.3827 138.412 10.3827ZM149.286 18.7699C150.745 20.2596 152.807 21.0044 155.406 21.0044C157.162 21.0044 158.652 20.6779 159.878 20.0249C161.105 19.3515 162.046 18.3719 162.7 17.0863C163.356 15.8007 163.684 14.2293 163.684 12.3723V0.281352H161.464V12.4948C161.464 14.6783 160.946 16.3007 159.91 17.3618C158.874 18.4025 157.373 18.9229 155.406 18.9229C153.441 18.9229 151.95 18.4025 150.934 17.3618C149.92 16.3007 149.413 14.6783 149.413 12.4948V0.281352H147.129V12.3723C147.129 15.1477 147.848 17.2802 149.286 18.7699ZM165.44 0.281352V20.6983H167.723V3.91318L174.955 14.3008L182.661 3.86085V20.6983H184.945V0.281352H182.47L175.096 10.9178L167.914 0.281352H165.44Z" fill="black"/>
</g>
</g>
<defs>
<clipPath id="clip0_3707_1137">
<rect width="185" height="21" fill="white"/>
</clipPath>
</defs>
</svg>
