<svg width="196" height="31" viewBox="0 0 196 31" fill="none" xmlns="http://www.w3.org/2000/svg">
<g clip-path="url(#clip0_3707_1105)">
<path fill-rule="evenodd" clip-rule="evenodd" d="M0 19.7207C0 19.7207 5.93123 19.7789 8.61864 20.2712C17.1759 21.8233 17.5042 29.922 17.5042 29.922C17.5042 29.922 16.1101 30.0014 12.4332 30.0014C3.85864 30.0014 0 19.7207 0 19.7207Z" fill="black"/>
<path fill-rule="evenodd" clip-rule="evenodd" d="M36.1877 19.7207C36.1877 19.7207 30.2571 19.7789 27.5679 20.2712C19.0142 21.8233 18.6865 29.922 18.6865 29.922C18.6865 29.922 20.0788 30.0014 23.7557 30.0014C32.332 30.0014 36.1877 19.7207 36.1877 19.7207Z" fill="black"/>
<path fill-rule="evenodd" clip-rule="evenodd" d="M21.2899 18.7796C21.2899 20.5369 19.859 21.9616 18.0938 21.9616C16.328 21.9616 14.897 20.5369 14.897 18.7796C14.897 17.0222 16.328 15.5977 18.0938 15.5977C19.859 15.5977 21.2899 17.0222 21.2899 18.7796Z" fill="black"/>
<path fill-rule="evenodd" clip-rule="evenodd" d="M27.8231 15.6449C27.8231 17.4021 26.3922 18.8268 24.627 18.8268C22.8612 18.8268 21.4302 17.4021 21.4302 15.6449C21.4302 13.8875 22.8612 12.4629 24.627 12.4629C26.3922 12.4629 27.8231 13.8875 27.8231 15.6449Z" fill="black"/>
<path fill-rule="evenodd" clip-rule="evenodd" d="M24.916 2.96711C24.916 4.72444 23.4849 6.14906 21.7198 6.14906C19.954 6.14906 18.5229 4.72444 18.5229 2.96711C18.5229 1.20977 19.954 -0.214844 21.7198 -0.214844C23.4849 -0.214844 24.916 1.20977 24.916 2.96711Z" fill="black"/>
<path fill-rule="evenodd" clip-rule="evenodd" d="M17.6642 2.96711C17.6642 4.72444 16.2332 6.14906 14.468 6.14906C12.7022 6.14906 11.2712 4.72444 11.2712 2.96711C11.2712 1.20977 12.7022 -0.214844 14.468 -0.214844C16.2332 -0.214844 17.6642 1.20977 17.6642 2.96711Z" fill="black"/>
<path fill-rule="evenodd" clip-rule="evenodd" d="M14.7574 15.6449C14.7574 17.4021 13.3265 18.8268 11.5613 18.8268C9.79549 18.8268 8.3645 17.4021 8.3645 15.6449C8.3645 13.8875 9.79549 12.4629 11.5613 12.4629C13.3265 12.4629 14.7574 13.8875 14.7574 15.6449Z" fill="black"/>
<path fill-rule="evenodd" clip-rule="evenodd" d="M29.437 8.60969C29.437 10.367 28.0059 11.7916 26.2408 11.7916C24.475 11.7916 23.0439 10.367 23.0439 8.60969C23.0439 6.85235 24.475 5.42773 26.2408 5.42773C28.0059 5.42773 29.437 6.85235 29.437 8.60969Z" fill="black"/>
<path fill-rule="evenodd" clip-rule="evenodd" d="M13.143 8.60969C13.143 10.367 11.712 11.7916 9.94677 11.7916C8.18098 11.7916 6.75 10.367 6.75 8.60969C6.75 6.85235 8.18098 5.42773 9.94677 5.42773C11.712 5.42773 13.143 6.85235 13.143 8.60969Z" fill="black"/>
<path fill-rule="evenodd" clip-rule="evenodd" d="M52.1176 27.1741C48.6491 27.2033 42.5803 26.1956 42.5803 19.1176C42.5803 12.1256 48.6491 10.9453 52.1176 11.0604V8.84458H57.7825V11.0604C61.251 10.9453 67.3204 12.1256 67.3204 19.1176C67.3204 26.1956 61.251 27.2033 57.7825 27.1741V29.9938H52.1176V27.1741ZM52.5227 15.0887C51.1066 15.0602 48.2446 15.5495 48.2446 19.1176C48.2446 22.685 51.1066 23.1743 52.5227 23.1459V15.0887ZM57.3786 23.1459C58.7947 23.1743 61.6554 22.685 61.6554 19.1176C61.6554 15.5495 58.7947 15.0602 57.3786 15.0887V23.1459ZM69.4222 19.9224C69.4222 14.5419 72.89 9.27635 80.2892 9.27635C87.6883 9.27635 91.1561 14.5419 91.1561 19.9224C91.1561 25.3042 87.6883 30.5696 80.2892 30.5696C72.89 30.5696 69.4222 25.3042 69.4222 19.9224ZM85.3178 19.9224C85.3178 16.0388 82.9188 14.1106 80.2892 14.1106C77.6589 14.1106 75.2599 16.0388 75.2599 19.9224C75.2599 23.8072 77.6589 25.7347 80.2892 25.7347C82.9188 25.7347 85.3178 23.8072 85.3178 19.9224ZM109.053 29.0732C107.232 30.3104 105.324 30.5696 103.591 30.5696C97.5783 30.5696 93.2424 26.3681 93.2424 19.9224C93.2424 13.1896 98.012 9.27635 103.504 9.27635C105.295 9.27635 107.347 9.73719 109.053 10.8878V16.7286C108.013 15.5205 106.422 14.3123 104.255 14.3123C101.133 14.3123 99.0813 16.7862 99.0813 20.095C99.0813 23.1459 101.017 25.5336 104.255 25.5336C106.364 25.5336 108.013 24.4116 109.053 23.3469V29.0732ZM117.715 9.85225H124.593L131.791 29.9938H125.721L124.593 26.5123H117.715L116.588 29.9938H110.518L117.715 9.85225ZM118.843 22.0806H123.466L121.154 14.6569L118.843 22.0806ZM133.764 9.85225H145.903V14.686H139.429V29.9938H133.764V9.85225ZM148.137 9.85225H156.663C162.414 9.85225 164.033 13.823 164.033 16.5851C164.033 19.3762 162.386 23.3469 156.663 23.3469H153.802V29.9938H148.137V9.85225ZM153.802 18.9159H155.42C157.936 18.9159 158.196 17.4486 158.196 16.5851C158.196 15.578 157.849 14.2839 155.42 14.2839H153.802V18.9159ZM165.944 19.9224C165.944 14.5419 169.413 9.27635 176.811 9.27635C184.209 9.27635 187.678 14.5419 187.678 19.9224C187.678 25.3042 184.209 30.5696 176.811 30.5696C169.413 30.5696 165.944 25.3042 165.944 19.9224ZM181.84 19.9224C181.84 16.0388 179.44 14.1106 176.811 14.1106C174.18 14.1106 171.781 16.0388 171.781 19.9224C171.781 23.8072 174.18 25.7347 176.811 25.7347C179.44 25.7347 181.84 23.8072 181.84 19.9224ZM195.111 12.0413C195.111 13.8569 193.754 15.2251 191.912 15.2251C190.072 15.2251 188.715 13.8569 188.715 12.0413C188.715 10.217 190.072 8.83984 191.912 8.83984C193.754 8.83984 195.111 10.217 195.111 12.0413ZM189.243 12.0413C189.243 13.5763 190.344 14.7518 191.912 14.7518C193.48 14.7518 194.582 13.5763 194.582 12.0413C194.582 10.4975 193.48 9.31372 191.912 9.31372C190.344 9.31372 189.243 10.4975 189.243 12.0413ZM191.768 10.1826C192.173 10.1826 193.09 10.252 193.09 11.2958C193.09 11.857 192.754 12.2169 192.28 12.313L193.511 13.8657H192.719L191.627 12.4103H191.451V13.8657H190.817V10.1826H191.768ZM191.451 11.8308H191.688C191.953 11.8308 192.454 11.8047 192.454 11.2958C192.454 10.7609 191.944 10.7609 191.706 10.7609H191.451V11.8308Z" fill="black"/>
</g>
<defs>
<clipPath id="clip0_3707_1105">
<rect width="196" height="31" fill="white"/>
</clipPath>
</defs>
</svg>
