<svg width="72" height="35" viewBox="0 0 72 35" fill="none" xmlns="http://www.w3.org/2000/svg">
<g clip-path="url(#clip0_3707_1133)">
<path d="M22.2385 10.9338H26.808V12.4114H24.6343V22.7934H22.2385V10.9338ZM29.5171 18.3412L29.9277 12.4114H30.0652L30.4758 18.3412H29.5171ZM26.864 22.7934H29.2097L29.4316 19.6438H30.5612L30.7842 22.7934H33.1288L31.8794 10.9338H28.1134L26.864 22.7934ZM36.56 18.6426V20.8783C36.56 21.1797 36.7957 21.2672 36.9332 21.2672C37.1591 21.2672 37.3163 21.0825 37.3163 20.8783V18.1178C37.3163 17.7483 37.2475 17.3401 36.3537 17.3401H35.3812V16.0375H36.3929C37.0707 16.0375 37.3163 15.8819 37.3163 15.1528V12.8003C37.3163 12.5961 37.1591 12.4114 36.9331 12.4114C36.7957 12.4114 36.56 12.4892 36.56 12.8003V14.7347H34.1631V13.0531C34.1631 12.2268 34.2613 10.9338 35.9409 10.9338H37.9252C39.6048 10.9338 39.7129 12.2268 39.7129 13.0531V14.9486C39.7129 16.2415 38.7994 16.5915 38.0823 16.5622V16.6789C39.6932 16.6401 39.7129 17.8648 39.7129 18.2829V20.6743C39.7129 21.5102 39.6048 22.7934 37.9252 22.7934H35.9409C34.2613 22.7934 34.1631 21.5101 34.1631 20.6742V18.6426H36.56ZM41.2846 10.9338H46.8344V22.7934H44.4377V12.4114H43.6814V22.7934H41.2846V10.9338ZM50.8028 17.4566V12.4115H51.1172C51.3725 12.4115 51.5591 12.6253 51.5591 13.0045V16.8636C51.5591 17.2428 51.3725 17.4565 51.1171 17.4565L50.8028 17.4566ZM48.406 22.7934H50.8028V18.7592H52.1778C53.8478 18.7592 53.9559 17.476 53.9559 16.64V13.0531C53.9559 12.2268 53.8478 10.9338 52.1779 10.9338H48.406V22.7934ZM58.6805 20.8783C58.6805 21.0825 58.5233 21.2672 58.2974 21.2672C58.1598 21.2672 57.9242 21.1797 57.9242 20.8783V12.8003C57.9242 12.4892 58.1599 12.4114 58.2974 12.4114C58.5233 12.4114 58.6805 12.5961 58.6805 12.8003V20.8783ZM55.5275 20.6743C55.5275 21.5102 55.6354 22.7934 57.3054 22.7934H59.2993C60.9692 22.7934 61.0773 21.5101 61.0773 20.6742V13.0531C61.0773 12.2268 60.9693 10.9338 59.2993 10.9338H57.3054C55.6355 10.9338 55.5275 12.2268 55.5275 13.0531V20.6743ZM68.8765 10.9338H72V22.7934H69.6034V15.3569H69.5149L68.2772 22.7934H66.3618L65.134 15.3569H65.0456V22.7934H62.6489V10.9338H65.7627L67.3244 19.2744L68.8765 10.9338ZM19.1325 6.5595C18.3989 3.38076 16.56 0.795038 16.3065 0.376953C15.9058 0.969878 14.4393 3.25442 13.6938 5.78179C12.8794 8.61054 12.7596 11.1185 13.0406 13.5779C13.3196 16.047 14.3734 18.5843 14.3734 18.5843C14.9334 19.9063 15.7722 21.3352 16.3184 22.0352C17.1189 21.0048 18.9587 17.9329 19.5323 13.9279C19.8516 11.6921 19.8653 9.73825 19.1325 6.5595ZM16.3065 21.2381C15.9461 20.5673 15.3861 19.2938 15.3331 17.3107C15.3194 15.4055 16.0924 13.7626 16.3184 13.4225C16.5197 13.7627 17.1857 15.1916 17.2653 17.1455C17.3193 19.0508 16.6788 20.5575 16.3065 21.2381ZM18.9194 11.9545C18.8919 13.1697 18.7455 14.4528 18.5589 15.2208C18.6257 13.8988 18.4656 12.0421 18.1591 10.584C17.8526 9.13548 16.9853 6.70533 16.2929 5.58736C15.6534 6.65672 14.8656 8.75636 14.453 10.5742C14.0385 12.392 14.0268 14.5987 14.0268 15.2597C13.9167 14.7055 13.6417 12.7128 13.7193 10.72C13.7842 9.07724 14.1731 7.37609 14.3863 6.59837C15.1995 4.00291 16.1199 2.34062 16.2928 2.0781C16.4658 2.34062 17.6247 4.39177 18.2259 6.54002C18.8242 8.68838 18.945 10.7491 18.9194 11.9545Z" fill="black"/>
<path d="M17.5511 22.7737H11.9728V26.4773C11.9778 26.4773 11.9817 26.4676 11.9866 26.4676C13.3008 25.165 15.4324 25.165 16.7476 26.4676C18.0619 27.7605 18.0619 29.8699 16.7476 31.1726C16.7417 31.1822 16.7358 31.1822 16.73 31.1919C16.7231 31.1919 16.7162 31.2017 16.7103 31.2114C15.399 32.4946 13.6859 33.1361 11.9728 33.1361C10.2519 33.1361 8.53096 32.4946 7.21869 31.1919C4.90441 28.9075 4.63036 25.3594 6.39452 22.7737C6.63671 22.4179 6.91269 22.0859 7.21869 21.7821C8.53096 20.4796 10.2519 19.8379 11.9728 19.8379V10.9336C5.36022 10.9336 0 16.2315 0 22.7737C0 29.3158 5.36022 34.6235 11.9728 34.6235C15.4206 34.6235 18.5265 33.175 20.711 30.8712V22.7737H17.5511ZM72 26.258H22.2385V34.6235H72V26.258ZM67.697 32.098H68.3285V30.8352H67.697V32.098ZM67.697 29.8882H68.6524L69.292 30.204L69.4498 30.5196L69.6077 31.151V31.4666C69.5911 33.7282 68.1208 32.9003 66.5756 33.0451V27.8364H67.697V29.8882ZM59.3985 27.8364V28.7834H58.601V33.0451H57.33V28.7834H56.5327V27.8364H59.3985ZM47.7606 31.6245H47.9184L48.234 31.4666V29.2569H47.7606V31.6245ZM46.4813 29.257H45.9995V31.4666L46.3234 31.6245H46.4813V29.257ZM47.7606 27.8364V28.3099H48.5581L49.0315 28.6255L49.3555 28.9412L49.5133 29.5726V31.3088L49.3556 31.9402L49.0315 32.2558L48.5581 32.5715H47.7606V33.045H46.4813V32.5715H45.6838L45.2021 32.2558L44.8864 31.9402L44.7286 31.3088V29.5726L44.8863 28.9412L45.2021 28.6255L45.6838 28.3099H46.4813V27.8364H47.7606ZM37.3903 27.8364V28.7834H36.4334V29.8882H37.3903V30.8352H36.4334V32.098H37.5498V33.045H35.1574V27.8364H37.3903ZM25.9068 29.8882H26.5448V27.8364H27.6613V33.0451H26.5448V30.8352H25.9068V33.0451H24.6309V27.8364H25.9068V29.8882Z" fill="black"/>
</g>
<defs>
<clipPath id="clip0_3707_1133">
<rect width="72" height="35" fill="white"/>
</clipPath>
</defs>
</svg>
