<svg width="130" height="35" viewBox="0 0 130 35" fill="none" xmlns="http://www.w3.org/2000/svg">
<mask id="mask0_3707_1094" style="mask-type:luminance" maskUnits="userSpaceOnUse" x="0" y="0" width="130" height="35">
<path d="M0 0H129.341V34.9143H0V0Z" fill="white"/>
</mask>
<g mask="url(#mask0_3707_1094)">
<mask id="mask1_3707_1094" style="mask-type:luminance" maskUnits="userSpaceOnUse" x="-1" y="-1" width="42" height="36">
<path d="M40.7954 34.5073L40.7674 34.4849C35.4629 30.4557 30.8527 25.3571 27.2948 19.288C23.7397 13.2174 21.5651 6.73837 20.6749 0.198985C20.6683 0.142611 20.641 0.0905753 20.598 0.0527975C20.555 0.0150195 20.4995 -0.00585938 20.4419 -0.00585938C20.3843 -0.00585937 20.3288 0.0150195 20.2858 0.0527975C20.2428 0.0905753 20.2155 0.142611 20.2089 0.198985C19.3195 6.73837 17.1456 13.2174 13.5892 19.288C10.0326 25.3579 5.42176 30.4565 0.116523 34.4849L0.089293 34.5073C0.0427499 34.5426 0.0117042 34.5941 0.00255671 34.6512C-0.00659076 34.7083 0.00685728 34.7667 0.0401282 34.8144C0.108202 34.915 0.245107 34.9425 0.348731 34.8837C6.21595 31.3986 13.0922 29.3922 20.4427 29.3922C27.5237 29.3818 34.4726 31.2809 40.5366 34.8837C40.641 34.9425 40.7757 34.915 40.8452 34.8144C40.8782 34.7667 40.8914 34.7084 40.8821 34.6514C40.8728 34.5945 40.8418 34.5424 40.7954 34.5073Z" fill="white"/>
</mask>
<g mask="url(#mask1_3707_1094)">
<path d="M40.7954 34.5073L40.7674 34.4849C35.4629 30.4557 30.8527 25.3571 27.2948 19.288C23.7397 13.2174 21.5651 6.73837 20.6749 0.198985C20.6683 0.142611 20.641 0.0905753 20.598 0.0527975C20.555 0.0150195 20.4995 -0.00585938 20.4419 -0.00585938C20.3843 -0.00585937 20.3288 0.0150195 20.2858 0.0527975C20.2428 0.0905753 20.2155 0.142611 20.2089 0.198985C19.3195 6.73837 17.1456 13.2174 13.5892 19.288C10.0326 25.3579 5.42176 30.4565 0.116523 34.4849L0.089293 34.5073C0.0427499 34.5426 0.0117042 34.5941 0.00255671 34.6512C-0.00659076 34.7083 0.00685728 34.7667 0.0401282 34.8144C0.108202 34.915 0.245107 34.9425 0.348731 34.8837C6.21595 31.3986 13.0922 29.3922 20.4427 29.3922C27.5237 29.3818 34.4726 31.2809 40.5366 34.8837C40.641 34.9425 40.7757 34.915 40.8452 34.8144C40.8782 34.7667 40.8914 34.7084 40.8821 34.6514C40.8728 34.5945 40.8418 34.5424 40.7954 34.5073Z" fill="url(#paint0_linear_3707_1094)"/>
</g>
<path d="M123.601 22.2132C123.601 20.727 122.711 20.0086 120.849 20.0086H112.028V24.4692H120.902C122.736 24.4692 123.601 23.6748 123.601 22.2646V22.2132ZM121.452 16.0614C126.616 16.0614 129.342 17.9068 129.342 22.3421V22.4182C129.342 26.7 126.589 28.5715 121.478 28.5715H104.84V9.52423H126.977V13.6771H112.028V16.0614H121.452ZM58.2835 20.9573L60.8484 14.9963H62.3453L64.8883 20.9573H58.2835ZM56.6846 9.52423L47.3281 28.5715H55.0334L56.4751 25.1878H66.671L68.1119 28.5715H75.8444L66.3564 9.52423H56.6846ZM76.656 14.2152H84.9119V28.5715H91.9622V14.2145H100.192V9.52344H76.656V14.2152Z" fill="black"/>
</g>
<defs>
<linearGradient id="paint0_linear_3707_1094" x1="20.4427" y1="6.11976" x2="20.4427" y2="35.0566" gradientUnits="userSpaceOnUse">
<stop/>
<stop offset="1"/>
</linearGradient>
</defs>
</svg>
