<svg width="38" height="31" viewBox="0 0 38 31" fill="none" xmlns="http://www.w3.org/2000/svg">
<g clip-path="url(#clip0_3707_1147)">
<path fill-rule="evenodd" clip-rule="evenodd" d="M0.86084 30.1174L8.51382 0.882812L18.9631 10.1779L29.4859 0.882812L37.1389 30.1174H33.4596L27.4991 7.25446L18.9631 14.7505L10.5007 7.25446L4.54016 30.1174H0.86084ZM5.64395 30.1174L11.0893 9.35336L18.9631 16.3247L26.9104 9.35336L32.3558 30.1174H28.5293L24.7028 15.65L18.9631 20.8973L13.2233 15.65L9.47044 30.1174H5.64395ZM10.5742 30.1174L13.812 17.674L16.9763 20.4475L15.8725 24.5704L23.8198 17.9738L24.85 21.497L21.3914 24.4204L27.2783 30.1174H22.3481L18.9631 26.2944L14.4007 30.1174H10.5742Z" fill="black"/>
</g>
<defs>
<clipPath id="clip0_3707_1147">
<rect width="38" height="31" fill="white"/>
</clipPath>
</defs>
</svg>
